<?xml version="1.0" encoding="utf-8"?>
<!-- Generator: Adobe Illustrator 24.1.1, SVG Export Plug-In . SVG Version: 6.00 Build 0)  -->
<svg version="1.1" id="Layer_1" xmlns="http://www.w3.org/2000/svg" xmlns:xlink="http://www.w3.org/1999/xlink" x="0px" y="0px"
	 viewBox="0 0 512 512" style="enable-background:new 0 0 512 512;" xml:space="preserve">
<style type="text/css">
	.st0{fill-rule:evenodd;clip-rule:evenodd;}
</style>
<g>
	<path class="st0" d="M0,54.9C0,24.6,24.6,0,54.9,0h109.7c30.3,0,54.9,24.6,54.9,54.9v109.7c0,30.3-24.6,54.9-54.9,54.9H54.9
		C24.6,219.4,0,194.9,0,164.6V54.9z M292.6,54.9c0-30.3,24.6-54.9,54.9-54.9h109.7C487.4,0,512,24.6,512,54.9v109.7
		c0,30.3-24.6,54.9-54.9,54.9H347.4c-30.3,0-54.9-24.6-54.9-54.9V54.9z M0,347.4c0-30.3,24.6-54.9,54.9-54.9h109.7
		c30.3,0,54.9,24.6,54.9,54.9v109.7c0,30.3-24.6,54.9-54.9,54.9H54.9C24.6,512,0,487.4,0,457.1V347.4z M292.6,347.4
		c0-30.3,24.6-54.9,54.9-54.9h109.7c30.3,0,54.9,24.6,54.9,54.9v109.7c0,30.3-24.6,54.9-54.9,54.9H347.4
		c-30.3,0-54.9-24.6-54.9-54.9V347.4z"/>
</g>
</svg>
