<?xml version="1.0" encoding="iso-8859-1"?>
<!-- Generator: Adobe Illustrator 19.0.0, SVG Export Plug-In . SVG Version: 6.00 Build 0)  -->
<svg version="1.1" id="Capa_1" xmlns="http://www.w3.org/2000/svg" xmlns:xlink="http://www.w3.org/1999/xlink" x="0px" y="0px"
	 viewBox="0 0 512 512" style="enable-background:new 0 0 512 512;" xml:space="preserve">
<path style="fill:#00E0FF;" d="M511.201,256c0,68.266-26.59,132.458-74.866,180.735s-112.469,74.866-180.735,74.866
	c-68.276,0-132.458-26.589-180.735-74.866S0,324.266,0,256c0-68.276,26.589-132.458,74.866-180.745
	C123.142,26.979,187.325,0.399,255.601,0.399c68.266,0,132.458,26.58,180.735,74.856C484.612,123.542,511.201,187.724,511.201,256z"
	/>
<path style="fill:#009AF2;" d="M511.201,256c0,68.266-26.59,132.458-74.866,180.735s-112.469,74.866-180.735,74.866V0.399
	c68.266,0,132.458,26.58,180.735,74.856C484.612,123.542,511.201,187.724,511.201,256z"/>
<g>
	<path style="fill:#8DF4FF;" d="M437.134,75.255C388.868,26.979,324.675,0.399,256.399,0.399c-0.27,0-0.529,0-0.799,0.01
		c-67.966,0.2-131.849,26.759-179.936,74.846C27.388,123.542,0.799,187.724,0.799,256c0,68.266,26.589,132.458,74.866,180.735
		c48.087,48.087,111.969,74.656,179.936,74.866h0.799c68.276,0,132.468-26.589,180.735-74.866C485.41,388.458,512,324.266,512,256
		C512,187.724,485.41,123.542,437.134,75.255z M415.956,415.557c-42.615,42.615-99.279,66.089-159.557,66.089
		c-0.27,0-0.529,0-0.799-0.01c-59.969-0.2-116.323-23.654-158.758-66.079C54.227,372.932,30.753,316.268,30.753,256
		c0-60.278,23.474-116.942,66.089-159.557c42.435-42.435,98.789-65.88,158.758-66.079c0.27-0.01,0.529-0.01,0.799-0.01
		c60.278,0,116.942,23.464,159.557,66.089c42.625,42.615,66.089,99.279,66.089,159.557
		C482.046,316.268,458.581,372.932,415.956,415.557z"/>
	<path style="fill:#8DF4FF;" d="M255.601,50.793c-113.148,0-205.207,92.05-205.207,205.207c0,113.148,92.06,205.197,205.207,205.197
		S460.808,369.148,460.808,256C460.808,142.842,368.748,50.793,255.601,50.793z M255.601,431.243
		c-96.633,0-175.253-78.61-175.253-175.243s78.62-175.253,175.253-175.253S430.854,159.367,430.854,256
		S352.233,431.243,255.601,431.243z"/>
</g>
<path style="fill:#00497B;" d="M371.863,168.503v176.122c0,9.446-3.744,18.262-10.534,24.812c-6.49,6.27-14.947,9.675-23.924,9.675
	c-0.429,0-0.849-0.01-1.268-0.02c-18.642-0.669-33.249-16.006-33.249-34.937v-53.109h-92.459v52.71
	c0,9.446-3.744,18.252-10.544,24.812c-6.79,6.56-15.746,9.975-25.192,9.645c-18.642-0.659-33.239-16.006-33.239-34.927V167.635
	c0-9.446,3.744-18.262,10.534-24.812c6.8-6.56,15.756-9.985,25.192-9.655c18.642,0.669,33.249,16.006,33.249,34.937v53.978h92.459
	v-53.109c0-9.456,3.654-18.023,9.635-24.313c5.981-6.28,14.288-10.284,23.614-10.614c9.436-0.329,18.392,3.085,25.192,9.645
	C368.119,150.251,371.863,159.058,371.863,168.503z"/>
<path style="fill:#00345A;" d="M371.863,168.503v176.122c0,9.446-3.744,18.262-10.534,24.812c-6.49,6.27-14.947,9.675-23.924,9.675
	c-0.429,0-0.849-0.01-1.268-0.02c-18.642-0.669-33.249-16.006-33.249-34.937v-53.109h-47.288v-68.965h47.288v-53.109
	c0-9.456,3.654-18.023,9.635-24.313c5.981-6.28,14.288-10.284,23.614-10.614c9.436-0.329,18.392,3.085,25.192,9.645
	C368.119,150.251,371.863,159.058,371.863,168.503z"/>
<g>
	<path style="fill:#00E0FF;" d="M255.601,461.197v-29.954c96.633,0,175.253-78.61,175.253-175.243S352.233,80.747,255.601,80.747
		V50.793c113.148,0,205.207,92.05,205.207,205.207C460.808,369.148,368.748,461.197,255.601,461.197z"/>
	<path style="fill:#00E0FF;" d="M512,256c0,68.266-26.589,132.458-74.866,180.735c-48.266,48.276-112.459,74.866-180.735,74.866
		h-0.799v-29.964c0.27,0.01,0.529,0.01,0.799,0.01c60.278,0,116.942-23.474,159.557-66.089
		c42.625-42.625,66.089-99.289,66.089-159.557c0-60.278-23.464-116.942-66.089-159.557c-42.615-42.625-99.279-66.089-159.557-66.089
		c-0.27,0-0.529,0-0.799,0.01V0.409c0.27-0.01,0.529-0.01,0.799-0.01c68.276,0,132.468,26.58,180.735,74.856
		C485.41,123.542,512,187.724,512,256z"/>
</g>
<g>
</g>
<g>
</g>
<g>
</g>
<g>
</g>
<g>
</g>
<g>
</g>
<g>
</g>
<g>
</g>
<g>
</g>
<g>
</g>
<g>
</g>
<g>
</g>
<g>
</g>
<g>
</g>
<g>
</g>
</svg>
